<svg xmlns="http://www.w3.org/2000/svg" width="52" height="79" viewBox="0 0 52 79">
  <g id="Path_5" data-name="Path 5" fill="#fff">
    <path d="M2,0H39.107C40.211,0,52,12.419,52,13.523V77a2,2,0,0,1-2,2H2a2,2,0,0,1-2-2V2A2,2,0,0,1,2,0Z" stroke="none"/>
    <path d="M 2 1 C 1.448600769042969 1 1 1.448600769042969 1 2 L 1 77 C 1 77.55139923095703 1.448600769042969 78 2 78 L 50 78 C 50.55139923095703 78 51 77.55139923095703 51 77 L 51 13.68325805664062 C 50.65995407104492 13.06771087646484 48.74871826171875 10.72269439697266 45.26099014282227 7.055633544921875 C 43.79057693481445 5.509620666503906 42.34314346313477 4.052719116210938 41.18529891967773 2.95330810546875 C 39.71405029296875 1.556320190429688 39.12277984619141 1.125892639160156 38.92425155639648 1 L 2 1 M 2 0 L 39.106689453125 0 C 40.21125793457031 0 52 12.41886901855469 52 13.52342987060547 L 52 77 C 52 78.10456848144531 51.10456848144531 79 50 79 L 2 79 C 0.8954315185546875 79 0 78.10456848144531 0 77 L 0 2 C 0 0.8954315185546875 0.8954315185546875 0 2 0 Z" stroke="none" fill="rgba(112,112,112,0.44)"/>
  </g>
</svg>
